<svg xmlns="http://www.w3.org/2000/svg" xmlns:xlink="http://www.w3.org/1999/xlink" width="32.793" height="32.793" viewBox="0 0 32.793 32.793"><defs><clipPath id="a"><path d="M149,68.889a16.4,16.4,0,1,0,16.4,16.4A16.4,16.4,0,0,0,149,68.889Z" transform="translate(-132.603 -68.889)" fill="#002847"/></clipPath></defs><g transform="translate(-132.603 -68.889)"><path d="M149,68.889a16.4,16.4,0,1,0,16.4,16.4A16.4,16.4,0,0,0,149,68.889Z" transform="translate(0)" fill="#6e6e6e"/><g transform="translate(132.603 68.889)" clip-path="url(#a)"><path d="M208.532,180.231h-.918a5.288,5.288,0,0,1-4.872,0h-.918a4.089,4.089,0,0,0-4.084,4.084v5.295h14.877v-5.295A4.089,4.089,0,0,0,208.532,180.231Z" transform="translate(-188.642 -164.68)" fill="#fff"/><path d="M228.842,120.035a4.294,4.294,0,1,0-4.294,4.294A4.3,4.3,0,0,0,228.842,120.035Z" transform="translate(-208.012 -109.197)" fill="#fff"/><path d="M208.532,180.231h-.918a5.288,5.288,0,0,1-4.872,0h-.918a4.089,4.089,0,0,0-4.084,4.084v5.295h14.877v-5.295A4.089,4.089,0,0,0,208.532,180.231Z" transform="translate(-188.642 -164.68)" fill="#fff"/><path d="M228.842,120.035a4.294,4.294,0,1,0-4.294,4.294A4.3,4.3,0,0,0,228.842,120.035Z" transform="translate(-208.012 -109.197)" fill="#fff"/></g></g></svg>