<svg xmlns="http://www.w3.org/2000/svg" width="23" height="22.927" viewBox="0 0 23 22.927"><g transform="translate(34.197 -194.13)"><path d="M-33.7,197c.039-.143.074-.286.118-.427a2.68,2.68,0,0,1,2.534-1.931c2.634-.019,5.268-.009,7.9-.011.15,0,.3,0,.451.006a.9.9,0,0,1,.871.887.9.9,0,0,1-.808.923,2.857,2.857,0,0,1-.342.02q-3.9,0-7.794,0a1.562,1.562,0,0,0-.506.062.831.831,0,0,0-.581.772c-.007.078-.005.157-.005.236q0,8.052,0,16.1a1.654,1.654,0,0,0,.046.444.844.844,0,0,0,.766.617c.107.009.214.011.322.011q3.886,0,7.773,0a2.054,2.054,0,0,1,.448.037.9.9,0,0,1,.674.947.893.893,0,0,1-.843.844c-.071,0-.143.006-.215.006-2.648,0-5.3-.015-7.944.007a2.8,2.8,0,0,1-2.724-1.866c-.057-.167-.1-.34-.142-.51Z" transform="translate(0 0)" fill="#6e6e6e" stroke="#707070" stroke-width="1"/><path d="M12.557,223.654h-.318q-5.056,0-10.111,0a1.054,1.054,0,0,1-.78-.229.908.908,0,0,1,.527-1.592c.107-.008.214-.01.322-.01H12.554c-.081-.088-.128-.143-.18-.194Q10.533,219.811,8.692,218a.944.944,0,0,1-.316-.984.909.909,0,0,1,1.394-.506,1.635,1.635,0,0,1,.212.18q2.69,2.653,5.378,5.309a.932.932,0,0,1,0,1.491q-2.688,2.655-5.377,5.309a.924.924,0,0,1-1.273.153.9.9,0,0,1-.193-1.259,2.3,2.3,0,0,1,.245-.27q1.809-1.788,3.621-3.575C12.426,223.8,12.472,223.744,12.557,223.654Z" transform="translate(-27.427 -17.147)" fill="#6e6e6e" stroke="#707070" stroke-width="1"/></g></svg>