<svg xmlns="http://www.w3.org/2000/svg" width="20.554" height="21.706" viewBox="0 0 20.554 21.706"><g transform="translate(0 4.477) rotate(-16)"><path d="M16.22,4.073a4.081,4.081,0,0,0-1.5-2.763l-.49-.4a4.113,4.113,0,0,0-5.779.609L.915,10.835a4.108,4.108,0,0,0,.609,5.778l.49.4a4.113,4.113,0,0,0,5.763-.591l5.084-6.282a2.612,2.612,0,0,0-.387-3.669l-.257-.208a2.611,2.611,0,0,0-3.669.387L3.474,12.919a.956.956,0,0,0,1.487,1.2l5.074-6.271a.7.7,0,0,1,.98-.1l.257.208a.7.7,0,0,1,.1.98L6.306,15.2a2.2,2.2,0,0,1-3.089.325l-.49-.4A2.2,2.2,0,0,1,2.4,12.038L9.938,2.725A2.2,2.2,0,0,1,13.027,2.4l.49.4a2.2,2.2,0,0,1,.326,3.089.956.956,0,0,0,.743,1.558h0a.953.953,0,0,0,.744-.355A4.081,4.081,0,0,0,16.22,4.073Z" transform="translate(0 0)" fill="#fff"/></g></svg>