<svg id="Capa_1" data-name="Capa 1" xmlns="http://www.w3.org/2000/svg" viewBox="0 0 386 411"><defs><style>.cls-1{fill:none;}.cls-2{fill:#3ec134;}.cls-3{fill:#fff;}</style></defs><title>img-profile</title><rect class="cls-1" width="386" height="411"/><path class="cls-2" d="M339.28,170.07A169.07,169.07,0,1,0,170.21,339.14h0A169.07,169.07,0,0,0,339.28,170.07Z" transform="translate(22.79 35.43)"/><path class="cls-3" d="M207.67,142.06H198a55.58,55.58,0,0,1-51.23,0h-9.66A43,43,0,0,0,94.17,185v55.68H250.62V185A43,43,0,0,0,207.67,142.06Z" transform="translate(22.79 35.43)"/><path class="cls-3" d="M217.55,92.49a45.15,45.15,0,1,0-45.15,45.16A45.15,45.15,0,0,0,217.55,92.49Z" transform="translate(22.79 35.43)"/></svg>