<svg xmlns="http://www.w3.org/2000/svg" width="100.363" height="94.991" viewBox="0 0 100.363 94.991"><defs><style>.a{fill:#3ec134;}</style></defs><g transform="translate(-1974 -3726.451)"><g transform="translate(1974 3726.451)"><path class="a" d="M2027.676,3737.813c1.42-.993,2.827-2,4.266-2.971a9.127,9.127,0,0,1,1.854-1,1.247,1.247,0,0,1,1.086.154,1.039,1.039,0,0,1-.046,1.033c-.651.851-1.41,1.629-2.065,2.58.249-.089.5-.171.747-.268,2.263-.891,4.508-1.823,6.795-2.656a6.9,6.9,0,0,1,2.395-.4,1.52,1.52,0,0,1,1.375,2.455,8.567,8.567,0,0,0-.421,1.309,5.125,5.125,0,0,1-.8,1.813c-1.6,1.619-3.308,3.14-4.981,4.693a3.437,3.437,0,0,0-.912,1.073c.455-.243.917-.474,1.364-.73,3.523-2.021,7.036-4.058,10.569-6.063a10.016,10.016,0,0,1,2.123-.932,3.6,3.6,0,0,1,3.826.951,3.259,3.259,0,0,1,.624,3.7,12.191,12.191,0,0,1-.847,1.424,4.824,4.824,0,0,0-.351.771,22.957,22.957,0,0,1-.9,2.466,1.547,1.547,0,0,1-1.037.6,5.393,5.393,0,0,0-4.519,3.827c-.5,2.073.477,3.627,2.174,4.837.7.5,1.53.853,2.228,1.361a9.946,9.946,0,0,1,1.832,1.649,1.363,1.363,0,0,1-.613,2.358,7.574,7.574,0,0,1-2.558.286c-.6.006-1.2-.224-1.81-.264s-.92.261-.645.846a3.629,3.629,0,0,0,2.717,2.254,5.882,5.882,0,0,0,6.518-3.373,1.806,1.806,0,0,1,.878-.7c.713-.345,1.5-.555,2.188-.94.992-.559,1.9-1.245,2.877-1.834a3.274,3.274,0,0,1,1.305-.515,1.66,1.66,0,0,1,1.253.316,1.22,1.22,0,0,1-.14,1.187c-.747.912-1.613,1.737-2.437,2.592-.245.254-.5.5-.753.745l.123.308a4.94,4.94,0,0,0,1.077-.242c.761-.359,1.552-.962,2.318-.209s.171,1.554-.235,2.3c-.457.835-.906,1.675-1.372,2.539,2.875.883,3.708,2.861,2.387,5.251-.251.456-.535.9-.813,1.338a9.89,9.89,0,0,0-1.458,2.9,8.281,8.281,0,0,1-1.772,2.773c-.879,1.116-1.867,2.158-2.743,3.275,1.042-.948,2.074-1.9,3.13-2.839a8.32,8.32,0,0,1,1.567-1.213,1.407,1.407,0,0,1,1.207.024,1.166,1.166,0,0,1,.277,1.094,6.947,6.947,0,0,1-1.08,2.056c-1.842,2.269-3.757,4.485-5.644,6.722a1.491,1.491,0,0,0-.387.717c.805-.69,1.587-1.406,2.424-2.06.5-.387,1.06-1.076,1.754-.493s.2,1.318-.229,1.816c-2.239,2.624-4.556,5.189-6.806,7.806-1.1,1.279-2.113,2.625-3.165,3.941l.2.188.768-.147a2.161,2.161,0,0,1,2.217.641,1.7,1.7,0,0,1,.161,2.248c-1.077,1.394-2.271,2.71-3.469,4.016a7.3,7.3,0,0,1-1.377.994c-.433.288-1.044.808-1.361.167-.223-.451.083-1.181.283-1.747.079-.223.508-.337.825-.53-.781-1.058-1.915-.455-3.016-.831,2.879-1.509,4.275-3.7,4.3-6.588l-.413-.232a9.228,9.228,0,0,0-.805,1.274,7.319,7.319,0,0,1-3.916,4.13c-.147.063-.3.1-.6.2l1.2-2.249-.353-.2a6.375,6.375,0,0,0-2.781,3.223c-.23.715.318,1.2.982,1.363,1.178.283,2.388.444,3.55.65-.708,1.283-3.783,2.505-5.331,2.1a1.433,1.433,0,0,0-1.073.2c-1.131.875-2.169,1.857-3.3,2.726-1.77,1.356-3.586,2.66-5.4,3.967a2.78,2.78,0,0,1-1.079.526,1.246,1.246,0,0,1-.982-.24.977.977,0,0,1-.047-.946,4.869,4.869,0,0,1,1.076-1.143c1.637-1.359,3.309-2.681,4.937-4.048a7.478,7.478,0,0,0,.919-1.127l-.261-.214c-.242.192-.484.385-.728.577q-4.046,3.177-8.093,6.351a3.133,3.133,0,0,1-2.547.736,1.826,1.826,0,0,0-.993.34c-.7.389-1.34.9-2.072,1.219a3.454,3.454,0,0,1-3.572-.365,2.879,2.879,0,0,1-1.227-3.171,9.274,9.274,0,0,1,1.235-2.72c1-1.527,2.14-2.972,3.112-4.583-.242.208-.492.408-.723.626-2.573,2.436-5.137,4.881-7.721,7.308a7.092,7.092,0,0,1-1.5,1.148,1.439,1.439,0,0,1-1.192.057,1.351,1.351,0,0,1-.4-1.087,2.746,2.746,0,0,1,.476-1.356q2.511-3.51,5.123-6.957c.192-.252.7-.307,1.069-.42,1.031-.312,2.1-.543,3.089-.942.348-.141.516-.679.766-1.036a3.981,3.981,0,0,0-1.218-.423c-2.7,0-2.9-.195-3.06-2.736-.225-3.527-.513-7.049-.813-10.571-.052-.6-.048-1.51-.93-1.444-.364.027-.916.939-.935,1.462-.155,4.2-.236,8.4-.264,12.606a3.134,3.134,0,0,0,1.689,2.857,1.907,1.907,0,0,1-.286.434c-2.533,2.048-5.011,4.164-7.641,6.1a12.783,12.783,0,0,1-3.737,1.708,3.272,3.272,0,0,1-3.72-1.132,2.777,2.777,0,0,1,.5-3.636,40.366,40.366,0,0,1,3.086-2.655l-.286-.3c-.238.141-.491.266-.713.427-1.756,1.273-3.5,2.559-5.263,3.826-.409.295-.9.864-1.36.264-.175-.231.119-.952.41-1.288a19.983,19.983,0,0,1,1.907-1.738,1.849,1.849,0,0,0,.643-.852c-.789.471-1.574.949-2.369,1.412a2.382,2.382,0,0,1-2.763.13,1.974,1.974,0,0,1-.723-2.512c.673-1.7,1.463-3.366,2.236-5.119-.273.191-.571.391-.859.6-1.237.907-2.459,1.831-3.712,2.718a3.23,3.23,0,0,1-1.337.676,2.938,2.938,0,0,1-1.953-.2,2.191,2.191,0,0,1-.36-1.819,7.029,7.029,0,0,1,.971-1.891,2.266,2.266,0,0,0,.379-.893c-.27.12-.536.25-.812.358-1.126.444-2.24.926-3.394,1.292a1.172,1.172,0,0,1-1.037-.316c-.13-.217.058-.763.295-.987,1.08-1.024,2.223-1.989,3.351-2.968.4-.344.81-.667,1.216-1l-.187-.216q-1.61.961-3.221,1.92a3.764,3.764,0,0,1-.881.479,3.346,3.346,0,0,1-.934-.012c.027-.321-.075-.749.106-.944a21.4,21.4,0,0,1,1.847-1.654,4.727,4.727,0,0,0,1.114-1.16c-.674.328-1.334.684-2.025.977a12.9,12.9,0,0,1-2.465.9,1.842,1.842,0,0,1-1.519-.375,1.7,1.7,0,0,1-.009-1.569,13.259,13.259,0,0,1,1.735-2c.192-.211.4-.406.814-.818-.516.1-.757.13-.987.194-2.206.617-4,.111-4.954-1.409s-.563-3.2,1.13-4.747c.562-.515,1.149-1.005,1.739-1.491a10.041,10.041,0,0,0,1.668-1.574,7.367,7.367,0,0,0-.762.323c-1.7.949-3.394,1.911-5.093,2.864a10.74,10.74,0,0,1-1.517.791,1.1,1.1,0,0,1-.918-.1.849.849,0,0,1-.079-.849,17.385,17.385,0,0,1,1.588-2.11,4.226,4.226,0,0,1,1.016-.639l-.256-.24c-.032-.051-.055-.137-.1-.146-1.914-.4-2.324-1.124-1.614-2.9.449-1.124.923-2.239,1.464-3.546-.49.089-.709.117-.922.17-1.555.393-2.6-.522-2.18-2a6.95,6.95,0,0,1,1.042-2.074c.908-1.271,1.915-2.48,2.939-3.788-.251-.1-.447-.19-.655-.246-2.393-.65-3.573-2.77-2.534-4.906a27.945,27.945,0,0,1,2.5-3.853c.924-1.3,1.934-2.539,2.759-3.966a13.021,13.021,0,0,1-1.7,1.093,6.894,6.894,0,0,1-1.572.321c.006-.513-.18-1.128.053-1.523a29.444,29.444,0,0,1,3.011-4.566,134.492,134.492,0,0,1,22.027-20.719c1.589-1.152,3.317-2.14,5.013-3.154a8.175,8.175,0,0,1,1.947-.831,3.727,3.727,0,0,1,3.849.912,3.015,3.015,0,0,1,.746,3.574,16.115,16.115,0,0,1-2.27,3.272,14.108,14.108,0,0,1-1.976,1.658l.279.315.895-.606c3.488-2.357,6.956-4.742,10.48-7.051a9.18,9.18,0,0,1,2.688-1.12,3.2,3.2,0,0,1,3.392,1.054,2.894,2.894,0,0,1,.362,3.356c-.092.191-.155.4-.293.751,1.446-.2,2.744-.417,4.052-.546a4.906,4.906,0,0,1,1.3.228,3.492,3.492,0,0,1-.5,1.142c-1.156,1.179-2.384,2.3-3.572,3.448a8.806,8.806,0,0,0-.664.813,1.8,1.8,0,0,0-.466.156q-7.025,4.815-14.036,9.648a3.4,3.4,0,0,0-1.795,2.454c-.457,3.191-.988,6.361-.545,9.579a7.4,7.4,0,0,0,.913,2.722,2.494,2.494,0,0,0,4.226.26,6.63,6.63,0,0,0,1.058-1.853c.64-1.693,1.18-3.418,1.793-5.12.2-.549.5-1.065.754-1.6l.318.067c.086,1.009.212,2.016.25,3.026.062,1.668.022,3.34.112,5.006a2.068,2.068,0,0,0,2,1.974,2.009,2.009,0,0,0,2.12-1.831,24.1,24.1,0,0,0-1.061-9.519c-.464-1.249-1.194-2.385-2.793-2.493s-2.4.971-2.984,2.12c-.95,1.881-1.769,3.821-2.649,5.733-.147.321-.327.628-.622,1.188a9.716,9.716,0,0,1-.191-.962c-.124-1.922-.214-3.845-.363-5.765-.108-1.386.064-2.841-1-4.1.285-.2.547-.388.821-.565,1.742-1.126,3.55-2.171,5.217-3.388C2021.789,3742.376,2024.715,3740.073,2027.676,3737.813Zm-19.064,41.273c.474-.045.839-.062,1.2-.117a27.848,27.848,0,0,0,2.808-.477,2.122,2.122,0,0,0,1.706-2.057,8.136,8.136,0,0,0-1.186-4.72,2.983,2.983,0,0,0-4.058-1.1,5.568,5.568,0,0,0-1.766,1.415c-3.1,3.825-2.229,10.742,1.686,13.817a5.164,5.164,0,0,0,5.633.645,7.583,7.583,0,0,0,3.584-3.45,24.107,24.107,0,0,0,2.592-8.276c.051-.338.113-.673.182-1.08a16.947,16.947,0,0,0,1.714.233c1.006.034,1.237.509,1.113,1.38-.292,2.037-.527,4.081-.765,6.125-.189,1.627-.4,3.255-.5,4.888a1.531,1.531,0,0,0,1.524,1.631,1.638,1.638,0,0,0,1.777-1.293,7.285,7.285,0,0,0,.2-1.139c.315-2.52.662-5.037.917-7.563a23.938,23.938,0,0,0,.085-3.751c-.094-1.648-1.026-2.508-2.752-2.7a23.951,23.951,0,0,0-2.547-.185c-.689,0-.893-.294-1.073-.879a9.042,9.042,0,0,0-1.112-2.45,2.567,2.567,0,0,0-2.853-1.029,2.687,2.687,0,0,0-1.774,2.385c-.132,1.672.9,3.106,2.835,3.8.578.208.8.452.728,1.048a18.55,18.55,0,0,1-2.257,7.259,8.065,8.065,0,0,1-2.123,2.28,2.284,2.284,0,0,1-2.849.081A7.291,7.291,0,0,1,2008.612,3779.086Zm-20.86-13.622a4.322,4.322,0,0,0,4.426-1.77,10.339,10.339,0,0,0,1.537-9.645,3.084,3.084,0,0,0-2.789-2.36,3.191,3.191,0,0,0-3.054,1.895c-.394.654-.7,1.354-1.047,2.033a5.421,5.421,0,0,1-.453-1.568,20.665,20.665,0,0,0-.677-3,1.518,1.518,0,0,0-1.186-.789,1.606,1.606,0,0,0-1.024.982,7.228,7.228,0,0,0-.272,2.092,80.188,80.188,0,0,0,.855,14.595c.216,1.46.468,2.922.826,4.356a1.976,1.976,0,0,0,2.312,1.453,1.927,1.927,0,0,0,1.607-2.053,9.764,9.764,0,0,0-.194-1.43C1988.347,3768.714,1988.062,3767.171,1987.752,3765.465Zm57.047-12.119c-.245-.295-.469-.567-.7-.836-1.348-1.582-3.493-2.437-5.029-1.61a8.1,8.1,0,0,0-3.44,2.943,9.138,9.138,0,0,0,.98,10.045c1.831,2.431,4.752,2.49,6.9.277a8.4,8.4,0,0,0,2.293-7.779c-.186-.987-.3-1.8.639-2.473a.889.889,0,0,0,.294-.5c.048-.2.091-.533-.02-.613a.926.926,0,0,0-.727-.1A8.787,8.787,0,0,0,2044.8,3753.345Zm-44.567,7.578-.349-.068a7.223,7.223,0,0,1-.457-1.331c-.247-1.748-.411-3.507-.662-5.255a10.607,10.607,0,0,0-.581-2.323,1.224,1.224,0,0,0-.941-.555c-.267,0-.605.355-.8.625a1.838,1.838,0,0,0-.289.913c-.132,2.077-.37,4.161-.294,6.233a8.321,8.321,0,0,0,.988,3.492,3.163,3.163,0,0,0,5.254.633,15.751,15.751,0,0,0,1.854-3.06,7.614,7.614,0,0,0,.4-.97,8.452,8.452,0,0,1,.353,2.163c.153,1.594,1.072,2.533,2.317,2.4,1.217-.129,1.872-1.159,1.733-2.726-.006-.064-.013-.128-.021-.192-.2-1.658-.36-3.322-.6-4.975a35.467,35.467,0,0,0-.732-3.782,1.773,1.773,0,0,0-1.861-1.492c-.99.038-1.365.729-1.6,1.516-.082.278-.147.562-.247.834-.768,2.088-1.509,4.187-2.339,6.253A9.307,9.307,0,0,1,2000.232,3760.923Zm3.4,7.305-.393.005a6.347,6.347,0,0,0-1.212,3.272c-.616,3.874-1.2,7.752-1.821,11.626a18.056,18.056,0,0,1-.5,1.868l-.3-.014c-.2-.5-.442-.991-.6-1.5-1.091-3.546-2.142-7.1-3.259-10.643a19.162,19.162,0,0,0-1.257-2.938c-.14-.273-.615-.393-.937-.583a3.6,3.6,0,0,0-.535.954,3.065,3.065,0,0,0,.042,1.244c.973,4.462,1.9,8.935,3,13.369a8.758,8.758,0,0,0,1.785,3.305,2.382,2.382,0,0,0,3.944-.308,6.7,6.7,0,0,0,1.043-2.686c.543-4.883,1-9.774,1.407-14.668A9.033,9.033,0,0,0,2003.636,3768.228Zm25.591-18.482a5.714,5.714,0,0,1,.071.667q-.249,5.679-.5,11.359a11.624,11.624,0,0,0-.009,1.92,1.97,1.97,0,0,0,1.845,1.773,2.005,2.005,0,0,0,2.045-1.566,6.6,6.6,0,0,0,.207-1.62c.039-3.886.076-7.771.057-11.657,0-.755.236-1.041,1.029-1.035a15.916,15.916,0,0,0,2.24-.153c.579-.079,1.312-.285,1.116-.957-.109-.375-.786-.757-1.268-.846a6.051,6.051,0,0,0-2.028.1c-.843.14-1.144-.1-1.167-.926a19.436,19.436,0,0,0-.384-3.439,1.4,1.4,0,0,0-1-.871c-.367-.019-.865.412-1.117.765a3.114,3.114,0,0,0-.377,1.287c-.155.919-.29,1.842-.388,2.768-.057.542-.3.789-.892.823a10.031,10.031,0,0,0-2.12.282,5.151,5.151,0,0,0-1.244.766,4.568,4.568,0,0,0,1.269.54C2027.47,3749.807,2028.35,3749.746,2029.227,3749.746Zm4.534,28.735c-.426-.287-.689-.47-.958-.646a3.033,3.033,0,0,0-4.115.484,5.312,5.312,0,0,0-.1,6.489,4.493,4.493,0,0,0,5.686,1.676,2.365,2.365,0,0,1,.391-.111c1.631-.361,2-.627,2-2.176,0-5.071-.075-10.143-.164-15.213-.011-.625.07-1.563-.884-1.56-.333,0-.89.917-.956,1.458-.344,2.8-.563,5.622-.822,8.435C2033.8,3777.651,2033.79,3777.987,2033.761,3778.481Zm8.585.444c.936.1,1.674.208,2.416.253,1.529.094,2.691-.445,3.117-1.539a4.514,4.514,0,0,0-.7-4.827c-1.978-2.348-5.363-2.113-6.718.574a10.885,10.885,0,0,0-.136,10.056,5.2,5.2,0,0,0,3.612,2.9c1.955.46,4.527-.543,5.122-2.114a4.591,4.591,0,0,0-.1-1.808,12.7,12.7,0,0,0-1.726.187c-.343.082-.615.4-.945.558a2.023,2.023,0,0,1-2.522-.3A5.391,5.391,0,0,1,2042.346,3778.925Zm-9.692,23.178h-.187c0,1.026,0,2.052,0,3.078a6.394,6.394,0,0,0,.034.864,1.629,1.629,0,0,0,1.624,1.557,1.568,1.568,0,0,0,1.593-1.473,7.711,7.711,0,0,0,.076-1.247c0-2.117.011-4.234-.025-6.351-.011-.65.21-.939.926-.936a2.445,2.445,0,0,0,1.174-.249,3.951,3.951,0,0,0,.821-.874,4.081,4.081,0,0,0-.962-.611,2.984,2.984,0,0,0-1.21-.051c-.645.083-.83-.164-.859-.736-.064-1.249-.177-2.5-.3-3.74a2.556,2.556,0,0,0-.311-1.2,1.639,1.639,0,0,0-1.056-.7c-.285-.01-.693.448-.859.781a3.163,3.163,0,0,0-.189,1.225c-.071,1.313-.152,2.628-.161,3.942,0,.687-.3.934-1,1.051a5.981,5.981,0,0,0-1.45.658,5.4,5.4,0,0,0,1.513.635c.695.066.842.32.823.907C2032.627,3799.794,2032.654,3800.949,2032.654,3802.1Zm24.567-29.339.348-.112a4.974,4.974,0,0,0-.308-1.275,2.991,2.991,0,0,0-3.548-1.175,4.125,4.125,0,0,0-2.645,5.721,12.725,12.725,0,0,0,2.474,2.734c.486.484,1.15.814,1.611,1.314a1.573,1.573,0,0,1,.038,2.278c-.706.691-1.461.485-2.237.09a10.452,10.452,0,0,0-1.654-.724c-.6-.183-1.025.16-.859.7a4.119,4.119,0,0,0,1.02,1.892,4.4,4.4,0,0,0,5.121.244,4.047,4.047,0,0,0,1.545-4.73,6.6,6.6,0,0,0-2.666-2.961,8.192,8.192,0,0,1-1.96-1.772,1.96,1.96,0,0,1,.564-2.686c.817-.658,1.512-.626,2.573.11C2056.824,3772.536,2057.026,3772.646,2057.221,3772.764Zm-28.985,28.379.094,0c-.12-1.6-.207-3.2-.389-4.8a1.1,1.1,0,0,0-.692-.788c-.276-.031-.642.343-.9.6a1.078,1.078,0,0,0-.234.626c-.309,2.774-.635,5.546-.867,8.325a1.6,1.6,0,0,0,.656,1.194,1.474,1.474,0,0,0,2.317-1.3C2028.3,3803.714,2028.236,3802.427,2028.236,3801.143Zm23-6.285-1.8-1.107-.154.212c1.194,1.168,2.185,2.558,4.083,3.187.349-1.578.923-3.043.543-4.6l-.38-.06-.754,3.44-.3.059c.521-1.774-.288-3.024-1.57-4.074-1.3-1.067-2.7-1.839-4.546-1.367-2.33.6-4.316,2.447-3.882,3.8,1.4-1.108,2.762-2.351,4.657-2.377C2049.188,3791.948,2050.21,3793.492,2051.235,3794.858Zm-10.465,3.542a21.181,21.181,0,0,0,.37,3.2c.306,1.152,1.315,1.77,2.7,2.285-.7-1.8-2.556-3.044-1.823-5.121l1.452,1.28a4.085,4.085,0,0,0-.713-3.049,1.131,1.131,0,0,0-1.031-.233c-.972.689-1.862,1.483-2.78,2.24l.221.263c.286-.138.578-.267.856-.417S2040.573,3798.519,2040.77,3798.4Zm-13.579-4.546a1.443,1.443,0,0,0,1.55-1.322,1.19,1.19,0,0,0-1.262-1.233,1.353,1.353,0,0,0-1.449,1.3A1.25,1.25,0,0,0,2027.191,3793.854Z" transform="translate(-1974 -3726.45)"/><path class="a" d="M2309.941,3830.167c-.383-3.476-2.428-5.329-4.937-6.829a9.152,9.152,0,0,1-.94-.614c-.715-.557-1.245-1.193-.764-2.178a2.028,2.028,0,0,1,2.407-1.254,20.982,20.982,0,0,1,1.949.854,6.017,6.017,0,0,0,1.019.22c.059-.38.3-.865.144-1.119a12.8,12.8,0,0,0-1.543-1.969,5.8,5.8,0,0,0-1.1-.718c1.421-.949,2.624-2.006,4.267-2.238,1.4-.2,2.074.706,1.547,2.007a2.128,2.128,0,0,1-.507.876c-1.571,1.245-1.422,3.06-1.673,4.928.444-.326.772-.607,1.136-.827,1.449-.876,2.871-1.811,4.382-2.564a1.828,1.828,0,0,1,2.241,2.832,25.1,25.1,0,0,1-2.047,2.668C2313.761,3826.174,2311.943,3828.05,2309.941,3830.167Z" transform="translate(-2225.988 -3795.071)"/><path class="a" d="M2151.152,4145.487a1.172,1.172,0,0,1,1.2-1.14,1.2,1.2,0,0,1,1.219,1.324,1.325,1.325,0,0,1-1.276,1.335C2151.656,4147.054,2151.127,4146.363,2151.152,4145.487Z" transform="translate(-2109.636 -4052.019)"/><path class="a" d="M2357.783,4069.819a1.263,1.263,0,0,1,1.4,1.25,1.111,1.111,0,0,1-1.195,1.121,1.279,1.279,0,0,1-1.31-1.267A1.06,1.06,0,0,1,2357.783,4069.819Z" transform="translate(-2267.001 -3993.944)"/><path class="a" d="M2275.891,4125.764c-.231-.33-.722-.737-.8-1.215-.117-.675.391-1.141,1.092-1.188a1.041,1.041,0,0,1,1.21,1.07C2277.423,4125.2,2276.935,4125.58,2275.891,4125.764Z" transform="translate(-2204.515 -4035.948)"/><path class="a" d="M2351.052,4047.069c-.568.418-.935.882-1.187.826a1.4,1.4,0,0,1-.865-.86c-.054-.187.488-.771.765-.774C2350.109,4046.259,2350.458,4046.671,2351.052,4047.069Z" transform="translate(-2261.117 -3975.56)"/><path class="a" d="M2397.084,3965.6c-.43.293-.7.615-.93.594s-.438-.385-.656-.6c.222-.212.429-.573.669-.595S2396.662,3965.309,2397.084,3965.6Z" transform="translate(-2296.721 -3912.251)"/><path class="a" d="M2121.139,3940.417a7.189,7.189,0,0,1,1.417-4.872c.626-.757,1.28-.673,1.623.249a13.852,13.852,0,0,1,.687,2.865,1.128,1.128,0,0,1-.561.927C2123.327,3939.928,2122.3,3940.126,2121.139,3940.417Z" transform="translate(-2086.657 -3889.031)"/><path class="a" d="M2159.635,3920.665c-1.365-.394-1.681-1.043-1-2.149Z" transform="translate(-2115.102 -3876.069)"/><path class="a" d="M2033.144,3851.792a9.263,9.263,0,0,1,.328,1.261,11.857,11.857,0,0,1-1.121,6.547,2.085,2.085,0,0,1-1.33,1.111c-.844.049-.835-.824-.873-1.459a11.08,11.08,0,0,1,2.207-6.847C2032.49,3852.2,2032.758,3852.084,2033.144,3851.792Z" transform="translate(-2016.977 -3824.215)"/><path class="a" d="M2246.2,3859.512a4.333,4.333,0,0,0,4.123,1.079c.153-.035.578.4.6.635a5.634,5.634,0,0,1-1.424,4.426c-.753.844-1.214.847-1.856-.076A9.343,9.343,0,0,1,2246.2,3859.512Z" transform="translate(-2182.39 -3830.192)"/><path class="a" d="M2256.493,3850.408a1.545,1.545,0,0,1-1.724-.854.6.6,0,0,1,.038-.546.546.546,0,0,1,.531-.072c.488.354.935.764,1.4,1.154Z" transform="translate(-2188.935 -3821.824)"/><path class="a" d="M2210.454,3969.5c.311-.992.336-2.109,1.339-2.257.477-.07,1.343.769,1.609,1.381a22.867,22.867,0,0,1,1.029,3.7c.142.579-.259.927-.73.816a3.533,3.533,0,0,1-1.929-.861A13.427,13.427,0,0,1,2210.454,3969.5Z" transform="translate(-2155.042 -3914.154)"/><path class="a" d="M2267.245,3943.943c-1.732-.01-1.794-.092-1.364-1.811a4.361,4.361,0,0,1,.168-.589c.258-.63.47-1.367,1.324-1.354a1.85,1.85,0,0,1,1.714,1.39C2269.719,3943.28,2269.181,3943.953,2267.245,3943.943Z" transform="translate(-2197.309 -3892.999)"/></g></g></svg>