<svg xmlns="http://www.w3.org/2000/svg" width="201.391" height="188" viewBox="0 0 201.391 188"><g transform="translate(-86.07 647.197)"><path d="M111.4-578.043a2.435,2.435,0,0,1-.173-.461c-.46-2.691-1.049-5.353-1.733-8-.1-.381-.179-.767-.252-1.154a.51.51,0,0,1,.295-.605,8.477,8.477,0,0,1,1.185-.458c1.609-.435,3.22-.864,4.839-1.259,2.562-.625,5.133-1.212,7.695-1.835a13.493,13.493,0,0,0,1.639-.543,2.269,2.269,0,0,0,.689-.427.707.707,0,0,0-.063-1.109,2.187,2.187,0,0,0-.99-.425,10.114,10.114,0,0,0-3.17-.086c-.241.024-.481.079-.722.08a22.794,22.794,0,0,0-3.88.433c-2.056.361-4.1.8-6.142,1.238-.857.184-1.7.452-2.545.679a5.337,5.337,0,0,0-3.443,2.489,1.944,1.944,0,0,1-.139.192,4.13,4.13,0,0,1-3.571-3.236,3.727,3.727,0,0,1,.207-2.052,5.958,5.958,0,0,1,1.225-2.008,17.532,17.532,0,0,1,4.911-3.865,39.208,39.208,0,0,1,5.765-2.475c1.2-.426,2.4-.84,3.609-1.254a1.175,1.175,0,0,0,.648-.406c-.2-.131-.357-.254-.531-.352-.4-.222-.821-.4-1.195-.654a3,3,0,0,1-1.117-3.985,7.269,7.269,0,0,1,.979-1.524,18.622,18.622,0,0,1,5.147-4.292c.276-.161.61-.263.761-.566-.114-.261-.321-.216-.486-.205a9.44,9.44,0,0,1-4.214-.978,1.983,1.983,0,0,1-1.2-1.8,3.435,3.435,0,0,1,.081-.99,8.5,8.5,0,0,1,2.138-3.957,16.982,16.982,0,0,1,3.122-2.64,86.747,86.747,0,0,1,12-6.858c3.4-1.622,6.873-3.06,10.393-4.392a31.75,31.75,0,0,1,4.966-1.472,14.729,14.729,0,0,1,3.8-.286,4.391,4.391,0,0,1,1.988.589,2.519,2.519,0,0,1,.786,3.771,5.44,5.44,0,0,1-.959.962c-.517.421-1.076.79-1.606,1.2-.153.118-.38.212-.315.548a1.782,1.782,0,0,0,.413-.066c.588-.243,1.178-.486,1.753-.758,2.909-1.378,5.721-2.94,8.541-4.488,1.834-1.007,3.631-2.088,5.557-2.921a10.819,10.819,0,0,1,4.588-.991,6.2,6.2,0,0,1,2.723.643,3.624,3.624,0,0,1,1.837,4.619,4.619,4.619,0,0,1-1.123,1.855c-.7.715-1.445,1.383-2.172,2.071-.171.162-.344.321-.5.464.065.223.194.188.3.15a4.562,4.562,0,0,0,.5-.217c3.266-1.611,6.544-3.2,9.791-4.843,3.085-1.565,6.137-3.193,9.2-4.8a48.78,48.78,0,0,1,5.283-2.445,12.5,12.5,0,0,1,2.9-.735,4.7,4.7,0,0,1,2.406.343,3.4,3.4,0,0,1,2.144,3.468c-.021.239-.049.478-.072.7a.271.271,0,0,0,.41.069c.328-.219.651-.445.972-.675a45.755,45.755,0,0,1,10.146-5.478,8.488,8.488,0,0,1,3.361-.7A3.1,3.1,0,0,1,224-643.885a9.692,9.692,0,0,1-.12,1.079c-.027.232-.144.47.085.743.2-.095.413-.182.612-.3.893-.516,1.774-1.055,2.674-1.558a14.4,14.4,0,0,1,3.6-1.5,4.916,4.916,0,0,1,1.9-.09,2.724,2.724,0,0,1,2.26,1.753,3.2,3.2,0,0,1,.164,2.223c-.175.547-.384,1.082-.579,1.622-.089.248-.314.454-.235.751.177.174.347.056.5-.016.716-.331,1.414-.7,2.143-1a13.774,13.774,0,0,1,2.15-.722,3.488,3.488,0,0,1,2.864.556,3.006,3.006,0,0,1,1.347,2.365,5.105,5.105,0,0,1-.432,2.483,9.84,9.84,0,0,1-2.075,2.97c-.844.827-1.735,1.61-2.641,2.369-2,1.676-4.026,3.322-6.032,4.991a2.013,2.013,0,0,0-.785.939,1.054,1.054,0,0,0,.357.031,9.553,9.553,0,0,0,.93-.361,36.569,36.569,0,0,0,5.069-2.861c2.452-1.629,4.888-3.282,7.345-4.9a19.023,19.023,0,0,1,2.125-1.228,8.2,8.2,0,0,1,1.712-.592,3.533,3.533,0,0,1,3.9,1.681,4.414,4.414,0,0,1,.366,3.6,6.054,6.054,0,0,1-1.059,2,16.774,16.774,0,0,1-3.313,3.234c-2.85,2.222-5.784,4.325-8.842,6.254-.744.469-1.477.957-2.209,1.445a3.772,3.772,0,0,0-.488.4c-.1.093,0,.362.132.359a2.24,2.24,0,0,0,.793-.09,12.838,12.838,0,0,0,1.625-.812c2.471-1.489,4.846-3.123,7.185-4.811.541-.39,1.081-.789,1.654-1.129.651-.386,1.329-.729,2.013-1.055a3.688,3.688,0,0,1,1.688-.29,1.73,1.73,0,0,1,1.6,2.239l-.376,1.09c.2.222.36.106.508.005.8-.547,1.6-1.1,2.4-1.652.6-.414,1.187-.847,1.8-1.235a18.629,18.629,0,0,1,1.668-.927,4.56,4.56,0,0,1,2.394-.4,3.22,3.22,0,0,1,2.993,3.016,4.934,4.934,0,0,1-.474,2.474,11.288,11.288,0,0,1-1.474,2.291,33.661,33.661,0,0,1-3.763,3.827c-.263.234-.605.416-.691.838a1.822,1.822,0,0,0,.238.261,2.857,2.857,0,0,1,.979,3.106,4.736,4.736,0,0,1-.886,1.98,19.038,19.038,0,0,1-1.631,1.952c-1.241,1.248-2.534,2.445-3.8,3.665q-.721.695-1.429,1.4c-.124.124-.227.268-.328.39a.2.2,0,0,0,.333.068c.451-.308.9-.615,1.339-.943,3.933-2.958,8.029-5.675,12.207-8.27a21.4,21.4,0,0,1,3.553-1.838,8.257,8.257,0,0,1,3.657-.558,5.254,5.254,0,0,1,.8.133,3.668,3.668,0,0,1,2.718,4.546,9.672,9.672,0,0,1-1.938,3.772,18.488,18.488,0,0,1-3.27,3.154c-1.393,1.075-2.831,2.092-4.245,3.139-.236.174-.544.282-.645.645a1.609,1.609,0,0,0,.191.28,2.812,2.812,0,0,1,.612,2.957,12.9,12.9,0,0,1-.491,1.271,4.788,4.788,0,0,0-.128.464.328.328,0,0,0,.457.061c.654-.318,1.32-.618,1.951-.979,2.318-1.325,4.623-2.674,6.936-4.007a19.061,19.061,0,0,1,3.616-1.7,7.773,7.773,0,0,1,2.954-.419,5.653,5.653,0,0,1,2.752.848,4.143,4.143,0,0,1,1.98,3.4,4.913,4.913,0,0,1-.889,3.18,12.5,12.5,0,0,1-2.671,2.718c-1.341,1.042-2.715,2.044-4.1,3.022-2.581,1.816-5.183,3.6-7.775,5.4-.219.152-.48.266-.568.545a.36.36,0,0,0,.353.357,3.451,3.451,0,0,0,1.532-.108c.829-.289,1.664-.569,2.474-.905,1.064-.442,2.1-.951,3.162-1.4a7.414,7.414,0,0,1,3.271-.668,4,4,0,0,1,3.81,4.748,8.929,8.929,0,0,1-2.108,4.174,17.271,17.271,0,0,1-3.722,3.19c-2.335,1.529-4.695,3.023-7.036,4.542-.636.413-1.253.855-1.863,1.306a5.986,5.986,0,0,0-.732.679c-.065.068-.067.2-.127.4a3.209,3.209,0,0,0,.6-.121c.639-.28,1.271-.576,1.9-.874,1.453-.687,2.9-1.4,4.361-2.058.633-.285,1.313-.467,1.972-.7a5.141,5.141,0,0,1,1.616-.215,3.882,3.882,0,0,1,3.66,4.711,6.676,6.676,0,0,1-1.061,2.3,12.354,12.354,0,0,1-3.2,3.07c-.955.645-1.937,1.25-2.905,1.877-.173.112-.391.2-.367.51.066.056.15.14.246.208.124.087.258.159.385.242a4.03,4.03,0,0,1,1.554,5.108,7.475,7.475,0,0,1-1.473,2.281,16.037,16.037,0,0,1-2.951,2.419c-.558.366-1.135.7-1.7,1.065a6.729,6.729,0,0,0-.543.431c.152.311.415.305.629.391a8.247,8.247,0,0,1,1.244.535,2.346,2.346,0,0,1,1.149,2.048,5.6,5.6,0,0,1-.471,2.3,9.9,9.9,0,0,1-1.716,2.776,26.28,26.28,0,0,1-3.94,3.639c-1.108.848-2.246,1.659-3.367,2.49-.186.138-.355.3-.617.526.212.056.322.121.417.1.476-.086.949-.194,1.423-.292.89-.185,1.779-.375,2.67-.55a3.981,3.981,0,0,1,2.234.252,3.1,3.1,0,0,1,2.091,2.732,6.187,6.187,0,0,1-.461,3.116,12.456,12.456,0,0,1-2.1,3.286,28.642,28.642,0,0,1-4.2,3.9c-.5.388-1,.778-1.544,1.2.072.251.121.482.2.7a4.088,4.088,0,0,1,.109,2.5,8.26,8.26,0,0,1-1.227,2.624,13.546,13.546,0,0,1-4.158,4.019c-.129.079-.256.164-.391.232a.77.77,0,0,0-.483.946,3.535,3.535,0,0,1-1.508,3.658c-.573.444-1.2.819-1.816,1.208-.384.243-.792.448-1.181.683a4.322,4.322,0,0,0-.443.356,4.3,4.3,0,0,0,.3.48,5.756,5.756,0,0,1-.606,7.754,13.784,13.784,0,0,1-3.834,2.412q-.922.388-1.834.8a5.7,5.7,0,0,0-.632.357c-.043.027-.056.1-.114.215a3.718,3.718,0,0,0,.236.423,2.265,2.265,0,0,1,.188,2.253,4.8,4.8,0,0,1-1.073,1.568,14.958,14.958,0,0,1-3.111,2.506c-1.652,1.02-3.318,2.017-4.975,3.029-.169.1-.4.161-.426.411.164.25.4.131.59.139a1.75,1.75,0,0,1,1.726,2.427,3.8,3.8,0,0,1-1.035,1.689,18.98,18.98,0,0,1-1.733,1.47,65.056,65.056,0,0,1-6.374,4.05,49.9,49.9,0,0,1-5.208,2.6c-.585.249-1.188.457-1.784.679a5.5,5.5,0,0,1-2.416.317,3.524,3.524,0,0,1-.971-.207,2.135,2.135,0,0,1-1.152-3.076,5.884,5.884,0,0,1,.523-.74c.1-.142.219-.276.313-.395a.2.2,0,0,0-.323-.106c-.347.185-.692.378-1.025.587-1.853,1.158-3.71,2.308-5.654,3.31a18.689,18.689,0,0,1-4.653,1.8,10.046,10.046,0,0,1-1.34.243,2.48,2.48,0,0,1-2.5-1.306c-.05-.11-.084-.228-.14-.335a2.288,2.288,0,0,0-.2-.264c-.179.08-.368.148-.543.244-.663.364-1.3.776-1.986,1.1a4.269,4.269,0,0,1-3.861-.034c-.68-.333-1.369-.653-2.023-1.033a2.682,2.682,0,0,1-1.409-2.208c-.023-.3-.012-.607-.034-.909a3.805,3.805,0,0,0-.092-.476c-.337-.112-.521.078-.725.193-.634.357-1.26.729-1.9,1.079a8.131,8.131,0,0,1-2.856.864,5.313,5.313,0,0,1-1.882-.25,4.7,4.7,0,0,1-1.562-.721,4.106,4.106,0,0,1-1.748-4.915c.122-.374.295-.731.436-1.1.062-.161.1-.33.144-.473-.2-.173-.326-.073-.448.011-.624.432-1.239.876-1.867,1.3a31.961,31.961,0,0,1-6.152,3.328,12.277,12.277,0,0,1-2.7.78,7.326,7.326,0,0,1-3.248-.109,4,4,0,0,1-3.034-3.482c-.063-.449-.083-.9-.13-1.356a3.242,3.242,0,0,0-.088-.374,1.439,1.439,0,0,0-.8.437,21.432,21.432,0,0,1-4.514,2.715,15.508,15.508,0,0,1-4.715,1.3,8.976,8.976,0,0,1-4.116-.522,4.637,4.637,0,0,1-2.908-2.819,4.662,4.662,0,0,0-.278-.543c-.415.031-.618.325-.868.529a19.042,19.042,0,0,1-3.727,2.432,15.7,15.7,0,0,1-4.672,1.452,9.228,9.228,0,0,1-3.349-.083,5.268,5.268,0,0,1-3.357-2.162,2.951,2.951,0,0,0-.266-.291c-.2.022-.41.03-.614.071a21.787,21.787,0,0,1-2.222.453,6.874,6.874,0,0,1-3.968-.738,4.586,4.586,0,0,1-2.292-4.857c.06-.358.173-.706.246-1.062a5.36,5.36,0,0,0,.051-.59,5.36,5.36,0,0,0-.553-.014,5.71,5.71,0,0,1-3.965-1.016,4.2,4.2,0,0,1-1.753-4.381,8.233,8.233,0,0,1,1.5-3.478,21.34,21.34,0,0,1,3.193-3.483c.816-.727,1.657-1.425,2.48-2.143a4.506,4.506,0,0,0,.385-.423c-.1-.253-.264-.219-.408-.2a6.064,6.064,0,0,1-2.428-.239,4.874,4.874,0,0,1-3.429-3.236c-.108-.3-.073-.685-.5-.89-.168.123-.369.248-.546.4a9.239,9.239,0,0,1-4.286,2.088,7.859,7.859,0,0,1-2.988.059,3.831,3.831,0,0,1-3.077-2.784,5.8,5.8,0,0,1,.072-3.581,9.414,9.414,0,0,1,1.125-2.279,2.518,2.518,0,0,1,.264-.371,1,1,0,0,0,.152-1.387,2.9,2.9,0,0,1-.4-1.387c-.018-.268-.08-.532-.131-.853a2.209,2.209,0,0,0-.555.007,9.991,9.991,0,0,1-2.512.384,9.335,9.335,0,0,1-5.006-1.058,5.842,5.842,0,0,1-1-.783,5.1,5.1,0,0,1-.514-.637c-.3.132-.494.2-.671.3-.526.3-1.032.64-1.566.927a7.556,7.556,0,0,1-4.378.959,5.793,5.793,0,0,1-3.874-1.786,5.181,5.181,0,0,1-1.316-4.714,8.1,8.1,0,0,1,2.126-3.957,14.1,14.1,0,0,1,3.345-2.644c.362-.213.717-.438,1.113-.68a15.057,15.057,0,0,1-1.082-1.918c-.211-.71-.074-1.444-.221-2.181a4.048,4.048,0,0,0-.567,0c-.568.089-1.137.179-1.7.3a5.739,5.739,0,0,1-3.043-.26,4.235,4.235,0,0,1-2.808-3.1,7.012,7.012,0,0,1,.1-3.685,12.21,12.21,0,0,1,3.1-5.383,37.71,37.71,0,0,1,4.219-3.745c1.483-1.156,3.019-2.244,4.529-3.366.234-.174.556-.269.614-.63a1.455,1.455,0,0,0-.846-.294,5.4,5.4,0,0,1-1.982-.628,5.184,5.184,0,0,1-2.843-4.372,7.275,7.275,0,0,1,1.039-4.444c.119-.2.206-.422.3-.622-.245-.276-.49-.157-.7-.092a8.68,8.68,0,0,1-2.512.34,4.339,4.339,0,0,1-3.5-1.651,5,5,0,0,1-1.194-3.079,7.174,7.174,0,0,1,1.74-4.858,16.354,16.354,0,0,1,2.684-2.585c.666-.528,1.346-1.037,2.018-1.558.167-.129.324-.269.522-.435a5.4,5.4,0,0,0-.138-.6,4.324,4.324,0,0,1,.3-3.52,9.588,9.588,0,0,1,1.738-2.324c.254-.261.5-.526.74-.8a.255.255,0,0,0-.166-.416c-.208-.035-.423-.033-.632-.066a8.355,8.355,0,0,1-1.246-.231,3.256,3.256,0,0,1-2.314-3.054,5.065,5.065,0,0,1,.515-2.374,13.044,13.044,0,0,1,2.264-3.065,21.542,21.542,0,0,1,5.151-4.017c1.215-.687,2.455-1.328,3.687-1.985.155-.083.327-.135.559-.229a1.7,1.7,0,0,1,.048.375,14.237,14.237,0,0,0,.024,3.63c.154,1.233.284,2.469.43,3.7q.208,1.762.428,3.522c.162,1.293.322,2.586.5,3.877.2,1.441.4,2.883.613,4.321q.4,2.652.832,5.3c.4,2.422.776,4.848,1.219,7.262q.606,3.308,1.336,6.592c.309,1.39.7,2.762,1.1,4.129a8.276,8.276,0,0,0,.725,1.759,2.335,2.335,0,0,0,2.281,1.219,2.248,2.248,0,0,0,1.933-1.175,3.3,3.3,0,0,0,.433-1.563,9.788,9.788,0,0,0-.03-1.455c-.195-1.686-.418-3.368-.632-5.051-.2-1.563-.391-3.127-.6-4.689-.208-1.531-.434-3.06-.655-4.59-.2-1.38-.389-2.761-.6-4.138-.327-2.1-.671-4.189-1.009-6.283-.14-.867-.286-1.734-.425-2.6a2.434,2.434,0,0,1-.017-.363.5.5,0,0,1,.322-.5c.445-.192.89-.388,1.341-.567,2-.792,4.017-1.556,6.009-2.373,1.29-.529,2.552-1.126,3.82-1.707a3.891,3.891,0,0,0,.774-.473.594.594,0,0,0-.124-1.086,2.5,2.5,0,0,0-1.415-.224,25.4,25.4,0,0,0-2.849.568,65.474,65.474,0,0,0-7.173,2.33c-.34.128-.681.254-1.024.373C111.58-578,111.514-578.027,111.4-578.043Zm18.118,47.577a2.339,2.339,0,0,1,.278-.149,3.108,3.108,0,0,1,.436-.13,21.055,21.055,0,0,0,6.4-2.522,21.606,21.606,0,0,0,5.865-4.846,21.162,21.162,0,0,0,4.148-8.023,14.116,14.116,0,0,0,.473-6.207,12.184,12.184,0,0,0-7.167-9.445,15.389,15.389,0,0,0-4.449-1.229,17.156,17.156,0,0,0-5.339.115,18.154,18.154,0,0,0-4.673,1.458A27.663,27.663,0,0,0,122.6-559.9a4.559,4.559,0,0,0-2.276,3.347c-.059.45-.118.9-.178,1.35a28.548,28.548,0,0,0-.048,5.452c.064,1.119.172,2.236.268,3.353.075.876.148,1.752.249,2.626.145,1.264.313,2.525.474,3.788.2,1.593.394,3.188.614,4.779.266,1.921.553,3.838.836,5.756.319,2.158.6,4.321.977,6.469.5,2.865,1.052,5.721,1.614,8.574.175.89.447,1.762.693,2.636a3.317,3.317,0,0,0,1.124,1.622,3.143,3.143,0,0,0,4.616-.733,3.779,3.779,0,0,0,.506-2.623c-.351-2.306-.695-4.614-1.053-6.919-.455-2.934-.924-5.866-1.379-8.8C129.578-529.635,129.556-530.055,129.516-530.466Zm109.956-55.964c-.043.661-.1,1.143-.1,1.625-.021,1.942-.041,3.885-.029,5.828a11.327,11.327,0,0,0,.182,1.807,2.649,2.649,0,0,0,.929,1.628,2.342,2.342,0,0,0,3.156-.034,2.553,2.553,0,0,0,.728-1.138,7.116,7.116,0,0,0,.215-.883,30.678,30.678,0,0,1,1.616-5.772,23.09,23.09,0,0,1,1.778-3.683,9.624,9.624,0,0,1,1.671-2.033,3.358,3.358,0,0,1,1.3-.816,1.1,1.1,0,0,1,1.522.6,1.373,1.373,0,0,1,.152.33,12.835,12.835,0,0,1,.378,1.679,15.2,15.2,0,0,1-.484,5.588c-.46,1.7-.994,3.373-1.58,5.032a7.323,7.323,0,0,0-.374,1.309,1.558,1.558,0,0,0,1.5,1.789,1.8,1.8,0,0,0,1.619-.836,19.051,19.051,0,0,0,3.885-9.288,11.729,11.729,0,0,0-.861-5.873,5.96,5.96,0,0,0-1.559-2.217,4.147,4.147,0,0,0-2.723-1.085,5.228,5.228,0,0,0-3.149,1,10.008,10.008,0,0,0-2.052,1.926,21.6,21.6,0,0,0-2.442,3.615c-.138.257-.3.5-.526.889a4.966,4.966,0,0,1-.114-.558c-.1-1.7-.187-3.391-.293-5.086-.051-.817-.1-1.636-.216-2.444a3.329,3.329,0,0,0-.427-1.185,1.028,1.028,0,0,0-1.507-.318,1.909,1.909,0,0,0-.583.559,6.063,6.063,0,0,0-.654,1.292,19.616,19.616,0,0,0-.557,2.2,1.508,1.508,0,0,1-.434.873c-.827.758-1.652,1.52-2.486,2.269a1.459,1.459,0,0,1-.413.173c-.2-.326-.371-.608-.54-.893a9.1,9.1,0,0,0-3.158-3.214,7.81,7.81,0,0,0-4.49-1.249,5.436,5.436,0,0,0-4.191,2.057,5.866,5.866,0,0,1-.613.668,10.812,10.812,0,0,0-2.24,2.964,13.153,13.153,0,0,0-1.5,6.578,10.611,10.611,0,0,0,1.133,4.551,8.443,8.443,0,0,0,3.3,3.551,7.018,7.018,0,0,0,4.355,1.023,7.7,7.7,0,0,0,4.534-2.125,13.567,13.567,0,0,0,3.748-6.143,11.823,11.823,0,0,0,.549-3.947.952.952,0,0,1,.175-.775q.732-.748,1.474-1.485C239.162-586.191,239.258-586.256,239.471-586.429Zm-6.843,34.353c-.178-.447-.312-.782-.447-1.117a11.678,11.678,0,0,0-4.456-5.5,9.107,9.107,0,0,0-6.5-1.508,6.952,6.952,0,0,0-5.572,4.046,4.957,4.957,0,0,1-.8,1.2,12.883,12.883,0,0,0-2.278,3.6,15.942,15.942,0,0,0-.94,9.887,14.033,14.033,0,0,0,2.8,5.96,8.537,8.537,0,0,0,6.742,3.248,9.787,9.787,0,0,0,6.965-2.67,15.1,15.1,0,0,0,3.612-5.087,16.78,16.78,0,0,0,1.5-6.517.923.923,0,0,1,.507-.885,5.268,5.268,0,0,0,.525-.36,8.6,8.6,0,0,0,2.169-2.186,4.383,4.383,0,0,0,.541-1.044,1.6,1.6,0,0,0-.341-1.7,1.608,1.608,0,0,0-1.732-.508,8.293,8.293,0,0,0-1.168.493C233.4-552.544,233.068-552.331,232.628-552.077Zm-55.21,5.4c-.112-.334-.181-.495-.219-.663-.142-.621-.275-1.243-.408-1.865-.643-3-1.387-5.966-2.3-8.89a18.972,18.972,0,0,0-.822-2.117,3.763,3.763,0,0,0-.665-.968,1.584,1.584,0,0,0-2.517.187,3.223,3.223,0,0,0-.559,1.235,13.049,13.049,0,0,0-.293,3.8c.066.967.183,1.931.262,2.9a55.78,55.78,0,0,0,.935,6.476,27.028,27.028,0,0,0,1.477,5.057,11.224,11.224,0,0,0,1.373,2.457,4.685,4.685,0,0,0,1.933,1.614,2.522,2.522,0,0,0,3.481-1.637,7.9,7.9,0,0,0,.24-1.156c.147-1.02.25-2.046.414-3.063.305-1.884.6-3.771,1.052-5.629a32.733,32.733,0,0,1,2.157-6.554,11.792,11.792,0,0,1,.862-1.495,3.7,3.7,0,0,1,1.492-1.3,1.361,1.361,0,0,1,1.862.407,5.121,5.121,0,0,1,.824,1.511,14.732,14.732,0,0,1,.855,4.358,36.443,36.443,0,0,1-.135,6.091c-.11.933-.155,1.874-.281,2.8-.249,1.832-.549,3.656-.8,5.489a8.8,8.8,0,0,0-.053,1.726,2.583,2.583,0,0,0,1.782,2.411,2.669,2.669,0,0,0,2.94-.641,3.455,3.455,0,0,0,.832-1.292c.265-.71.532-1.422.743-2.149a51.454,51.454,0,0,0,1.532-7.012c.211-1.473.345-2.952.441-4.433a22.373,22.373,0,0,0-.352-5.165,15.732,15.732,0,0,0-1.822-5.309A8.3,8.3,0,0,0,190-563.042a5.613,5.613,0,0,0-5.084.04,7.184,7.184,0,0,0-2.523,2.186,12.9,12.9,0,0,0-1.744,3.385,95.506,95.506,0,0,0-2.907,9.57C177.657-547.518,177.557-547.18,177.418-546.675Zm-13.78,38.1c.085.934.143,1.871.261,2.8a16.31,16.31,0,0,0,2.128,6.241,11.3,11.3,0,0,0,5.986,5.068,10.284,10.284,0,0,0,4.826.623,9.053,9.053,0,0,0,5.179-2.442,12.7,12.7,0,0,0,2.937-4.232,27.839,27.839,0,0,0,1.738-5.258c.23-1.031.327-2.092.468-3.142a.535.535,0,0,0-.249-.629c-.212-.1-.434-.016-.664.328-.539.806-1.112,1.6-1.571,2.449a13.242,13.242,0,0,1-4.026,4.505,13.905,13.905,0,0,1-2.722,1.638,4.344,4.344,0,0,1-2.933.145,5.455,5.455,0,0,1-3.274-2.58,11.417,11.417,0,0,1-1.308-3.379,7.66,7.66,0,0,1-.165-.892c-.036-.341.112-.495.463-.535.09-.01.182-.011.272-.013a48.417,48.417,0,0,0,7.482-.916,11.287,11.287,0,0,0,2.367-.629,3.973,3.973,0,0,0,2.515-3.3,7.642,7.642,0,0,0-.314-3.5,9.317,9.317,0,0,0-6.529-6.29,6.836,6.836,0,0,0-2.147-.308,8.155,8.155,0,0,0-4.211,1.278,12.212,12.212,0,0,0-3.513,3.389A16.626,16.626,0,0,0,163.637-508.579Zm54.206,7.212c0,.381-.007.531,0,.681.051,1,.072,2,.172,2.993a4.157,4.157,0,0,0,.39,1.387,2.165,2.165,0,0,0,2.043,1.287,2.226,2.226,0,0,0,2.089-1.363,3.192,3.192,0,0,0,.285-.859c.1-.6.167-1.2.216-1.8.086-1.057.142-2.116.22-3.174q.093-1.269.207-2.536c.1-1.086.213-2.171.3-3.258.089-1.148.152-2.3.222-3.447.1-1.694.245-3.387.288-5.082a65.349,65.349,0,0,0-.1-7.274,33.847,33.847,0,0,0-.4-3.427,7.272,7.272,0,0,0-.3-1.14,2.649,2.649,0,0,0-.441-.786,1.124,1.124,0,0,0-1.812-.031,2.231,2.231,0,0,0-.4.6,5.271,5.271,0,0,0-.4,1.109c-.224,1.159-.432,2.322-.6,3.491-.169,1.2-.283,2.406-.417,3.609-.172,1.535-.338,3.07-.513,4.6-.026.229-.088.454-.16.815-.257-.307-.432-.5-.593-.711a6.087,6.087,0,0,0-2.092-1.721,6.2,6.2,0,0,0-4.136-.623,7.355,7.355,0,0,0-4.028,2.313,11.543,11.543,0,0,0-3.155,7.559,13.105,13.105,0,0,0,1.215,6.1,7.951,7.951,0,0,0,3.22,3.728,5.444,5.444,0,0,0,6.091-.205,7.065,7.065,0,0,0,1.7-1.63C217.22-500.5,217.461-500.842,217.843-501.367Zm-62.036,9.276c-.117-.1-.178-.133-.2-.181-.222-.465-.443-.931-.653-1.4-1.661-3.712-3.035-7.535-4.4-11.361-1.072-3-2.161-5.988-3.294-8.962a33.569,33.569,0,0,0-2.738-5.64,21.114,21.114,0,0,0-1.323-1.847,2.942,2.942,0,0,0-1.131-.894,1.481,1.481,0,0,0-2.2,1.225,5.871,5.871,0,0,0,.1,1.622c.124.684.328,1.354.518,2.025.651,2.3,1.312,4.6,1.967,6.908,1.044,3.673,2.038,7.36,3.252,10.983a60.551,60.551,0,0,0,4.5,10.521,15.792,15.792,0,0,0,2.175,3.131,5.048,5.048,0,0,0,1.347,1.071,3.083,3.083,0,0,0,4.277-1.319,5.614,5.614,0,0,0,.412-1.007c.25-.9.521-1.809.684-2.731.7-3.936,1.355-7.879,2.029-11.82.337-1.97.682-3.939,1.011-5.91.285-1.7.568-3.406.823-5.113.165-1.108.292-2.222.411-3.336.11-1.024.2-2.051.275-3.078a11.583,11.583,0,0,0,0-1.183,2.869,2.869,0,0,0-.679-1.748.558.558,0,0,0-.871-.085,2.586,2.586,0,0,0-1.009,1.472c-.163.8-.337,1.6-.447,2.41-.221,1.62-.351,3.254-.609,4.868-.45,2.811-.95,5.614-1.464,8.414-.5,2.74-1.04,5.475-1.582,8.208A41.672,41.672,0,0,1,155.807-492.091Zm47.132-71.163a.934.934,0,0,1-.257.041,40.048,40.048,0,0,0-5.275-.1,8.125,8.125,0,0,0-2.328.34.853.853,0,0,0-.665.674.868.868,0,0,0,.452.833,1.689,1.689,0,0,0,.393.227,8.294,8.294,0,0,0,1.111.4q1.681.395,3.374.732c.772.154,1.554.259,2.33.394.308.053.413.2.373.509-.054.421-.119.84-.179,1.26-.222,1.56-.45,3.119-.664,4.679-.148,1.081-.281,2.163-.415,3.246q-.256,2.075-.5,4.151-.123,1.038-.232,2.078c-.107,1.025-.212,2.05-.309,3.076-.08.845-.147,1.691-.219,2.537-.111,1.3-.227,2.6-.33,3.9q-.119,1.5-.211,2.994c-.056.908-.121,1.816-.128,2.725a5.194,5.194,0,0,0,.186,1.345,2.845,2.845,0,0,0,2.291,2.082,2.8,2.8,0,0,0,2.929-1.4,5.056,5.056,0,0,0,.48-1.173,9.543,9.543,0,0,0,.237-1.249c.168-1.108.336-2.217.486-3.328s.287-2.224.411-3.339c.15-1.355.274-2.713.42-4.069.156-1.446.335-2.89.482-4.337.151-1.477.274-2.957.414-4.436.066-.694.144-1.387.213-2.08.1-1,.21-1.99.291-2.986.089-1.088.145-2.178.225-3.266.042-.575.1-1.148.162-1.721a2.375,2.375,0,0,1,.133-.43,9.089,9.089,0,0,1,2.107.006c.787.045,1.576.1,2.363.093a2.434,2.434,0,0,0,2.085-1.105.745.745,0,0,0,.061-.845,2.609,2.609,0,0,0-2-1.418c-1.285-.208-2.573-.406-3.866-.545-.626-.067-.705-.251-.7-.8.01-.88.025-1.761-.013-2.64a16.494,16.494,0,0,0-.222-1.985,2.939,2.939,0,0,0-.58-1.323,1.74,1.74,0,0,0-2.43-.408,2.092,2.092,0,0,0-.779.873,9.366,9.366,0,0,0-.643,1.6c-.29,1.114-.515,2.244-.749,3.371A1.4,1.4,0,0,1,202.939-563.253Zm-39.04,22.9c.1.279.149.382.173.491.141.651.25,1.31.42,1.954a15.89,15.89,0,0,0,1.128,3.163,4.61,4.61,0,0,0,1.148,1.51,3.036,3.036,0,0,0,3.332.251,2.936,2.936,0,0,0,1.3-3.063c-.106-.379-.19-.765-.3-1.142a82.355,82.355,0,0,1-1.944-8.314c-.389-2.084-.714-4.18-1.129-6.259-.231-1.156-.572-2.292-.9-3.427a3.623,3.623,0,0,0-.5-1.063,1.169,1.169,0,0,0-2.079.1,5.649,5.649,0,0,0-.456,1.183,18.661,18.661,0,0,0-.687,4.3,13.388,13.388,0,0,1-.577,3.3c-.269.868-.486,1.752-.753,2.621a41.329,41.329,0,0,1-1.821,5.139c-.353.77-.766,1.514-1.174,2.257a1.223,1.223,0,0,1-.653.665,2.308,2.308,0,0,1-.305-.411c-.224-.5-.445-1-.629-1.509a22.744,22.744,0,0,1-1.082-4.964c-.192-1.563-.285-3.137-.416-4.707-.081-.966-.14-1.934-.228-2.9-.083-.9-.172-1.81-.293-2.71-.113-.84-.236-1.682-.424-2.507a3.933,3.933,0,0,0-.538-1.242A1.631,1.631,0,0,0,151.99-558a2.748,2.748,0,0,0-.667.848,7.441,7.441,0,0,0-.527,1.446,28.383,28.383,0,0,0-.69,5.948,45.9,45.9,0,0,0,.108,6,30.955,30.955,0,0,0,.772,4.839,13.986,13.986,0,0,0,2.389,5.164,6.578,6.578,0,0,0,2.034,1.793,4.168,4.168,0,0,0,3.5.408,4.135,4.135,0,0,0,1.921-1.328,12.548,12.548,0,0,0,1.073-1.574,16.48,16.48,0,0,0,1.576-4.25C163.6-539.2,163.73-539.688,163.9-540.355Zm67.216,33.523a2.724,2.724,0,0,1,.44-.116c.938-.055,1.877-.116,2.816-.147a18.177,18.177,0,0,0,3.245-.39,4.337,4.337,0,0,0,3.325-2.8,7.477,7.477,0,0,0,.269-.773,11.189,11.189,0,0,0-.37-7.224,8.271,8.271,0,0,0-2.876-3.788,5.557,5.557,0,0,0-4.758-.854,7.273,7.273,0,0,0-3.137,1.764,11.687,11.687,0,0,0-2.26,2.835,18.71,18.71,0,0,0-2.477,7.734,18.812,18.812,0,0,0,.6,6.939,15.129,15.129,0,0,0,2.18,4.676,10.068,10.068,0,0,0,4.031,3.45,7.976,7.976,0,0,0,4.153.775,8.657,8.657,0,0,0,5.207-2.366,16.794,16.794,0,0,0,4.633-8.205,3.651,3.651,0,0,0,.075-.994,1.513,1.513,0,0,0-.159-.606.708.708,0,0,0-1.047-.382,2.393,2.393,0,0,0-.976.793c-.612.753-1.216,1.513-1.826,2.268a25.116,25.116,0,0,1-2.422,2.712,6.756,6.756,0,0,1-1.891,1.241,3.509,3.509,0,0,1-3.388-.249,4.816,4.816,0,0,1-1.283-1.146A10.525,10.525,0,0,1,231.115-506.832Zm-55.206-82.079c-.272-.386-.427-.609-.585-.83a5.924,5.924,0,0,0-1.92-1.783,5.06,5.06,0,0,0-3.67-.638,6.989,6.989,0,0,0-3.76,2.246,11.447,11.447,0,0,0-2.154,3.565,10.646,10.646,0,0,0,.458,9.228,6.89,6.89,0,0,0,2.727,2.859,5.145,5.145,0,0,0,5.675-.159,8.228,8.228,0,0,0,2.048-1.922c.122-.156.177-.395.491-.41,0,.243,0,.479,0,.715,0,1-.025,2,0,3a6.156,6.156,0,0,0,.2,1.436,2.09,2.09,0,0,0,1.725,1.564,2.054,2.054,0,0,0,2.074-.855,2.128,2.128,0,0,0,.474-1.164c.065-.755.128-1.511.168-2.268.032-.606.014-1.214.045-1.82.1-1.908.21-3.815.312-5.723q.087-1.635.156-3.271c.08-1.97.16-3.941.224-5.912.054-1.637.078-3.275.128-4.913.071-2.338-.021-4.672-.138-7.006a12.918,12.918,0,0,0-.2-1.624,5.666,5.666,0,0,0-.313-1.042,1.134,1.134,0,0,0-.983-.836,1.1,1.1,0,0,0-1.077.832,9.59,9.59,0,0,0-.444,1.477,35.017,35.017,0,0,0-.6,4.044c-.145,1.508-.334,3.012-.475,4.52-.1,1.056-.146,2.117-.221,3.176-.059.847-.118,1.694-.191,2.539C176.06-589.614,175.989-589.351,175.908-588.911Zm77.455,30.31a7.047,7.047,0,0,0-1.65-4.46A8.2,8.2,0,0,0,243.645-566a9.237,9.237,0,0,0-7.192,11.475,7.952,7.952,0,0,0,4.523,5.394,13,13,0,0,0,4.034,1.041c1.175.135,2.354.233,3.527.383a5.259,5.259,0,0,1,2.071.646,1.136,1.136,0,0,1,.592,1.454,4.994,4.994,0,0,1-1.273,2.278,7.587,7.587,0,0,1-3.187,2.042,6.114,6.114,0,0,1-5.657-.6c-.753-.511-1.525-1-2.276-1.509a2.836,2.836,0,0,0-1.9-.471.56.56,0,0,0-.6.554,2.636,2.636,0,0,0,.386,1.831,12.293,12.293,0,0,0,1.794,2.287,8.263,8.263,0,0,0,8.271,2.285,12.152,12.152,0,0,0,6.623-4.25,9.838,9.838,0,0,0,1.77-3.16,6.579,6.579,0,0,0,.419-2.587,5.728,5.728,0,0,0-2.482-4.361,10.155,10.155,0,0,0-3.194-1.5c-1.428-.417-2.9-.6-4.353-.923a15.541,15.541,0,0,1-2.092-.6,2.741,2.741,0,0,1-1.756-2.064,4.273,4.273,0,0,1,2.053-4.835,3.652,3.652,0,0,1,2.362-.511,5.513,5.513,0,0,1,3.57,1.821,15.693,15.693,0,0,1,1.295,1.863c.305.487.533,1.022.817,1.524.333.59.713.586,1.066-.009a1.97,1.97,0,0,0,.249-.582C253.208-557.589,253.278-558.1,253.363-558.6Zm7.457,39.54-.051-.012a7.773,7.773,0,0,0-.05-.816,8.995,8.995,0,0,0-.263-1.244,9.586,9.586,0,0,0-6.308-6.546,7.309,7.309,0,0,0-5.495.232,9.435,9.435,0,0,0-4.854,4.834,7.656,7.656,0,0,0-.239,5.935,9.274,9.274,0,0,0,2.969,4.175,11.86,11.86,0,0,0,4.013,2.085c1.244.386,2.5.73,3.753,1.092a5.327,5.327,0,0,1,1.649.748,1.894,1.894,0,0,1,.764,2.39,3.244,3.244,0,0,1-.264.577,3.937,3.937,0,0,1-2.07,1.836,5.162,5.162,0,0,1-5.244-.632,3.189,3.189,0,0,0-.44-.322,3.327,3.327,0,0,0-.665-.283.617.617,0,0,0-.708.285,1.329,1.329,0,0,0-.231.862,2.67,2.67,0,0,0,.364,1.208,4.9,4.9,0,0,0,1.907,1.905,6.733,6.733,0,0,0,5.274.632,8.075,8.075,0,0,0,5.843-6.145,5.679,5.679,0,0,0-.026-2.706,6.384,6.384,0,0,0-2.027-3.275,11.317,11.317,0,0,0-3.328-2.021c-.67-.282-1.359-.521-2.023-.818-.747-.334-1.491-.679-2.205-1.076a4.8,4.8,0,0,1-2.094-2.328,2.78,2.78,0,0,1-.038-2.211,4.816,4.816,0,0,1,1.1-1.655A3.277,3.277,0,0,1,253-523.3a5.263,5.263,0,0,1,.945.319,7.149,7.149,0,0,1,2.1,1.412,12.035,12.035,0,0,1,2.12,2.717c.323.549.637,1.106,1,1.625.443.625.875.583,1.234-.082a1.6,1.6,0,0,0,.166-.421C260.664-518.172,260.738-518.618,260.82-519.062ZM132.2-574.311a3.7,3.7,0,0,1-.384-.629,14.749,14.749,0,0,1-.549-1.73,20.1,20.1,0,0,1-.436-3.332c-.087-1.513-.2-3.025-.295-4.538-.07-1.089-.112-2.18-.216-3.266a8.261,8.261,0,0,0-.331-1.5,1.058,1.058,0,0,0-1.91-.391,4.616,4.616,0,0,0-.588.8,9.746,9.746,0,0,0-.59,1.327,23.845,23.845,0,0,0-1.218,6.045,25.154,25.154,0,0,0-.026,5,12.389,12.389,0,0,0,1.278,4.522,6.152,6.152,0,0,0,1.377,1.8,4.5,4.5,0,0,0,5,.8,5.065,5.065,0,0,0,1.863-1.428,7.937,7.937,0,0,0,1.422-2.318c.369-.961.687-1.942,1.024-2.915.053-.154.025-.348.2-.421.08,1.426.149,2.849.244,4.271a7.442,7.442,0,0,0,.2,1.348,2.778,2.778,0,0,0,2.748,2.215,2.71,2.71,0,0,0,2.69-2.262,4.931,4.931,0,0,0,.055-1.355c-.065-.845-.188-1.686-.283-2.529-.246-2.2-.486-4.4-.735-6.594a38.444,38.444,0,0,0-1.287-6.225,7.4,7.4,0,0,0-.427-1.2,2.035,2.035,0,0,0-.553-.7,1.073,1.073,0,0,0-1.679.409,2.67,2.67,0,0,0-.19.605c-.2.949-.369,1.9-.571,2.851a35.843,35.843,0,0,1-2.01,6.508,12.523,12.523,0,0,1-2.683,4.082A2.29,2.29,0,0,1,132.2-574.311ZM193-514.74c-.067-.325-.128-.56-.161-.8-.14-.99-.242-1.986-.415-2.969a20.973,20.973,0,0,0-.553-2.3,3.211,3.211,0,0,0-.531-1.045,1.528,1.528,0,0,0-2.5-.033,1.971,1.971,0,0,0-.334.538,5.32,5.32,0,0,0-.369,1.117,24.713,24.713,0,0,0-.351,2.883c-.062,1.636-.029,3.276-.039,4.914a75.961,75.961,0,0,0,.544,9.348c.2,1.687.433,3.368.794,5.026a21.462,21.462,0,0,0,.757,2.522,3.655,3.655,0,0,0,1.171,1.706,2.272,2.272,0,0,0,2.475.345,2.142,2.142,0,0,0,1.328-2.009,28.934,28.934,0,0,0-.059-3c-.156-2.057-.323-4.11-.31-6.176a23.9,23.9,0,0,1,.381-4.069,13.637,13.637,0,0,1,1.592-4.43,6.692,6.692,0,0,1,1.46-1.849,4.763,4.763,0,0,1,1.144-.724,1.233,1.233,0,0,1,1.623.407,9.608,9.608,0,0,1,.772,1.229c.165.289.28.605.436.9a2.653,2.653,0,0,0,1.6,1.269.623.623,0,0,0,.734-.2,2.318,2.318,0,0,0,.665-1.645,6.621,6.621,0,0,0-2.314-4.864,3.476,3.476,0,0,0-.606-.4,4.847,4.847,0,0,0-4.381-.153,7.408,7.408,0,0,0-3,2.3C194.021-516.234,193.557-515.524,193-514.74ZM148.769-582.7l-.139-.023c-.079-.5-.172-1.006-.236-1.512q-.424-3.385-1.147-6.719a26.037,26.037,0,0,0-.737-2.625,3.425,3.425,0,0,0-.617-1.1.88.88,0,0,0-1.473.066,2.177,2.177,0,0,0-.31.552,3.38,3.38,0,0,0-.224.785,20.847,20.847,0,0,0-.2,2.079c-.057,2.4.142,4.787.321,7.177.143,1.906.312,3.806.594,5.7a17.854,17.854,0,0,0,.889,3.707,4.6,4.6,0,0,0,.789,1.425,1.883,1.883,0,0,0,2.037.677,1.8,1.8,0,0,0,1.295-1.6c.079-.478.133-.96.193-1.441.247-1.985.53-3.965.938-5.924a19.862,19.862,0,0,1,1.782-5.236,5.372,5.372,0,0,1,1.151-1.625,4.854,4.854,0,0,1,.976-.649.589.589,0,0,1,.8.212,3.473,3.473,0,0,1,.435.792,10.126,10.126,0,0,1,.714,3.457c.032,2.184,0,4.37-.008,6.555,0,.151-.025.3-.031.454-.039,1-.095,2-.1,3a3.239,3.239,0,0,0,.178,1.069,1.965,1.965,0,0,0,1.828,1.415,1.984,1.984,0,0,0,1.875-1.074,2.066,2.066,0,0,0,.215-.5,6.163,6.163,0,0,0,.2-.886c.142-1.142.292-2.284.392-3.431.115-1.328.205-2.66.258-3.993.025-.633-.061-1.271-.1-1.907A13.886,13.886,0,0,0,160.042-589a6.423,6.423,0,0,0-1.722-2.321,3.6,3.6,0,0,0-4.073-.558,6.448,6.448,0,0,0-1.355.9,7.6,7.6,0,0,0-1.737,2.2,27.518,27.518,0,0,0-2.165,5.392C148.92-583.149,148.843-582.923,148.769-582.7Zm44.269-5.341c-.275-.642-.509-1.231-.777-1.8a5.171,5.171,0,0,0-1.1-1.553,4.052,4.052,0,0,0-4.174-1.09,5.212,5.212,0,0,0-2.578,1.781,10.025,10.025,0,0,0-1.83,3.627,9.848,9.848,0,0,0,.839,7.988,6.341,6.341,0,0,0,2.063,2.262,4.256,4.256,0,0,0,5.226-.315,12.341,12.341,0,0,0,1.156-1.275c.11-.125.2-.264.4-.525a6.968,6.968,0,0,0,.061.957,4.361,4.361,0,0,0,.345,1.116,1.908,1.908,0,0,0,1.874,1.054,1.886,1.886,0,0,0,1.729-1.273,3.037,3.037,0,0,0,.182-1.062c.023-1.7.045-3.392.118-5.089.085-1.967.058-3.94.042-5.911-.007-.846-.1-1.692-.178-2.537a2.882,2.882,0,0,0-.168-.7.89.89,0,0,0-1.509-.427,2.9,2.9,0,0,0-.609.778,7.946,7.946,0,0,0-.743,2.233C193.283-589.233,193.168-588.656,193.038-588.038Zm19.251,5.214c-.22.029-.421,0-.542.084a2.628,2.628,0,0,0-.5.527,34.988,34.988,0,0,1-2.853,3.184,10.147,10.147,0,0,1-1.1.956,1.723,1.723,0,0,1-2.593-.173,4.829,4.829,0,0,1-1.327-2.245,8.028,8.028,0,0,1-.26-3.505,12.656,12.656,0,0,1,1.167-3.9,7.471,7.471,0,0,1,.805-1.205,1.442,1.442,0,0,1,1.375-.551,3.693,3.693,0,0,1,1.042.282,4.908,4.908,0,0,1,1.957,1.726c.28.4.522.819.791,1.222a3.76,3.76,0,0,0,.445.572.5.5,0,0,0,.847-.08,2.586,2.586,0,0,0,.351-.92,3.475,3.475,0,0,0-.018-1.086,7.1,7.1,0,0,0-2.448-4.346,5.974,5.974,0,0,0-3.285-1.437,5.506,5.506,0,0,0-3.995,1.2,8.4,8.4,0,0,0-2.313,2.779,14.509,14.509,0,0,0-1.885,8.921,10.084,10.084,0,0,0,2.308,5.447,7.116,7.116,0,0,0,3.526,2.313,5.055,5.055,0,0,0,5.061-1.212,7.842,7.842,0,0,0,1.968-2.921c.458-1.153.859-2.333,1.207-3.524A4.907,4.907,0,0,0,212.289-582.824Zm6.451-5.423-.057,0c0-.817.012-1.635,0-2.452a2.7,2.7,0,0,0-.451-1.549,1.088,1.088,0,0,0-1.661-.23,2.308,2.308,0,0,0-.729,1.027c-.274.737-.543,1.479-.754,2.235a61.48,61.48,0,0,0-1.422,6.936c-.213,1.345-.381,2.7-.527,4.052a10.536,10.536,0,0,0-.04,1.907A2.351,2.351,0,0,0,216.2-574.3a2.568,2.568,0,0,0,1.73-2.342c.076-.57.119-1.144.164-1.718.128-1.63.263-3.26.369-4.892C218.573-584.919,218.65-586.584,218.74-588.247Zm19.779-12.366a2.274,2.274,0,0,0-2.17-2.253,2.7,2.7,0,0,0-2.052.805,15.37,15.37,0,0,0-2.923,3.574,8.457,8.457,0,0,0-1.084,2.778,1.947,1.947,0,0,0,.064.984,1.207,1.207,0,0,0,1.64.84,4,4,0,0,0,1.1-.62,15.51,15.51,0,0,0,1.4-1.3,28.434,28.434,0,0,1,2.726-2.535,4.835,4.835,0,0,0,.717-.692A2.4,2.4,0,0,0,238.519-600.613Zm-18.508,4.265a2.138,2.138,0,0,0-2.14-2.133,2.259,2.259,0,0,0-2.15,2.266,2.224,2.224,0,0,0,2.064,2.153A2.263,2.263,0,0,0,220.012-596.348Z" fill="#fff"/><path d="M203.486,206.028a1.344,1.344,0,0,1,1.214,2.17,1.6,1.6,0,0,1-.263.37c-.82.765-1.619,1.555-2.482,2.268a1.606,1.606,0,0,1-2.091-.093,2.026,2.026,0,0,1-.9-1.875,1.451,1.451,0,0,1,.446-.964,2.505,2.505,0,0,1,.494-.4c.777-.409,1.553-.826,2.355-1.181A6.812,6.812,0,0,1,203.486,206.028Z" transform="translate(-91.446 -691.203)" fill="#fff"/><path d="M1088.234-56.583a7.809,7.809,0,0,1-.9-.076,1.169,1.169,0,0,1-.734-1.9,2.852,2.852,0,0,1,.636-.644c.8-.553,1.6-1.1,2.426-1.6a1.677,1.677,0,0,1,1.814-.014,1.827,1.827,0,0,1,1.015,1.786,1.779,1.779,0,0,1-1.1,1.641A8.555,8.555,0,0,1,1088.234-56.583Z" transform="translate(-810.321 -474.822)" fill="#fff"/><path d="M1029.085-484.322a1.884,1.884,0,0,1,2.015,1.738,1.594,1.594,0,0,1-1.112,1.856q-1.284.571-2.6,1.062a3.041,3.041,0,0,1-1.059.182,1.153,1.153,0,0,1-1.135-1.415,2.385,2.385,0,0,1,.576-1.118,10.738,10.738,0,0,1,2.7-2.123A2.074,2.074,0,0,1,1029.085-484.322Z" transform="translate(-760.769 -131.945)" fill="#fff"/><path d="M193.058-463.219a5.811,5.811,0,0,1-.944-.285,1.06,1.06,0,0,1-.446-1.548,2.707,2.707,0,0,1,.523-.623,9.549,9.549,0,0,1,3.284-1.912,1.775,1.775,0,0,1,2.261,2.008,1.586,1.586,0,0,1-.989,1.318,18.43,18.43,0,0,1-3.309.973,2.111,2.111,0,0,1-.363,0Z" transform="translate(-85.407 -145.429)" fill="#fff"/><path d="M868.285,316.573a5.58,5.58,0,0,1-.677-.039.936.936,0,0,1-.709-1.376,2.287,2.287,0,0,1,.422-.584,11.84,11.84,0,0,1,2.512-1.932,1.977,1.977,0,0,1,1.923-.04,1.6,1.6,0,0,1,.593,2.213,1.854,1.854,0,0,1-.735.775A8.676,8.676,0,0,1,868.285,316.573Z" transform="translate(-632.466 -777.353)" fill="#fff"/><path d="M155.034,166.182a1.578,1.578,0,0,1-1.614-1.022,1.443,1.443,0,0,1,.537-1.841,5.012,5.012,0,0,1,2-.815,1.967,1.967,0,0,1,.721.011.946.946,0,0,1,.709,1.379,6.375,6.375,0,0,1-1.742,2.06A1.806,1.806,0,0,1,155.034,166.182Z" transform="translate(-54.462 -655.921)" fill="#fff"/><path d="M1121.7-95.291a5.3,5.3,0,0,1-1.029-.286,1.054,1.054,0,0,1-.5-1.4,2.193,2.193,0,0,1,1.444-1.285,1.011,1.011,0,0,1,.448-.021,1.668,1.668,0,0,1,1.192,1.131,1.459,1.459,0,0,1-.579,1.6C1122.432-95.379,1122.314-95.355,1121.7-95.291Z" transform="translate(-837.658 -444.669)" fill="#fff"/><path d="M927.178,257.172c.707-.036,1.252.367,1.355,1.382a1.415,1.415,0,0,1-1.161,1.414,2.122,2.122,0,0,1-1.544-.392.979.979,0,0,1-.365-1.128A2.048,2.048,0,0,1,927.178,257.172Z" transform="translate(-679.956 -732.633)" fill="#fff"/><path d="M292.337-159.109c-1.339-7.281-2.359-14.593-4.174-21.8a2.982,2.982,0,0,1,.511-.182c1.465-.235,2.922-.51,4.4-.656a14.651,14.651,0,0,1,7.552,1.145,7.421,7.421,0,0,1,4.269,4.912,4.82,4.82,0,0,1,.154.8,11.066,11.066,0,0,1-.885,5.5,16.521,16.521,0,0,1-5.832,7.287,23.189,23.189,0,0,1-5,2.772A1.83,1.83,0,0,1,292.337-159.109Z" transform="translate(-163.717 -376.994)" fill="#fff"/><path d="M812.336-319.339a8.138,8.138,0,0,0,1.9,1.7,8.416,8.416,0,0,0,4.28,1.352,13.666,13.666,0,0,0,1.9-.17c.12-.012.237-.05.357-.059a.285.285,0,0,1,.27.3,1.111,1.111,0,0,1-.055.264,10.079,10.079,0,0,1-2.687,4.05,5.906,5.906,0,0,1-.959.682,2.642,2.642,0,0,1-2.918-.127,4.678,4.678,0,0,1-1.8-2.231,6.837,6.837,0,0,1-.561-2.557A9.891,9.891,0,0,1,812.336-319.339Z" transform="translate(-588.118 -265.599)" fill="#fff"/><path d="M832.02-341.115c-.117.13-.148.2-.2.216a5.411,5.411,0,0,1-5.677-.892,2.075,2.075,0,0,1-.749-1.4,1.551,1.551,0,0,1,1.4-1.788,3.737,3.737,0,0,1,1.7.127A5.419,5.419,0,0,1,832.02-341.115Z" transform="translate(-598.925 -244.791)" fill="#fff"/><path d="M772.852-127.725a2.583,2.583,0,0,1,.411.282,10.828,10.828,0,0,0,7.09,3.3,9.984,9.984,0,0,0,2.719.007,4.69,4.69,0,0,1,.68,0,3.353,3.353,0,0,1-.051.659,10.628,10.628,0,0,1-2.9,4.861,5.108,5.108,0,0,1-1.52.98,4.592,4.592,0,0,1-2.594.214,2.774,2.774,0,0,1-1.6-.98,6.859,6.859,0,0,1-.71-.943,10.667,10.667,0,0,1-1.653-5.229c-.029-.878.013-1.757.031-2.636A3.429,3.429,0,0,1,772.852-127.725Z" transform="translate(-556.252 -420.827)" fill="#fff"/><path d="M794.845-158.606a8.628,8.628,0,0,1-3.851-.986,3.622,3.622,0,0,1-1.618-1.665,2.36,2.36,0,0,1,2.009-3.491,4.578,4.578,0,0,1,2.929.761,6.851,6.851,0,0,1,2.823,4.2,1.79,1.79,0,0,1,.04.451.425.425,0,0,1-.364.454C796.16-158.78,795.5-158.7,794.845-158.606Z" transform="translate(-569.519 -390.825)" fill="#fff"/><path d="M529.163,42.145a1.727,1.727,0,0,1-.043-1.077,10.946,10.946,0,0,1,1.67-4.2,6.283,6.283,0,0,1,1.571-1.63,2.652,2.652,0,0,1,2.511-.349,5.105,5.105,0,0,1,3.467,3.674c.024.088.052.175.068.264.139.82,0,1.111-.813,1.36q-1.955.6-3.944,1.081c-1.234.3-2.484.543-3.73.8A7.172,7.172,0,0,1,529.163,42.145Z" transform="translate(-358.864 -552.427)" fill="#fff"/><path d="M741.784,65.817a2.681,2.681,0,0,1-1.263-1.249,7.624,7.624,0,0,1-.872-2.284,7.3,7.3,0,0,1-.089-3.329,7.182,7.182,0,0,1,1.371-2.842,2.6,2.6,0,0,1,3.57-.675,5.739,5.739,0,0,1,2.108,2.212.8.8,0,0,1,.024.783c-.685,1.486-1.346,2.984-2.065,4.453a7.451,7.451,0,0,1-1.634,2.17,5.7,5.7,0,0,1-.634.515A3.566,3.566,0,0,1,741.784,65.817Z" transform="translate(-529.269 -568.862)" fill="#fff"/><path d="M848.727,40.117a3.012,3.012,0,0,1-.044-1.142,17.237,17.237,0,0,1,1.063-4.4,8.985,8.985,0,0,1,1.164-2.15,3.873,3.873,0,0,1,1.271-1.146.953.953,0,0,1,1.109.056,5.369,5.369,0,0,1,.968.944,6.954,6.954,0,0,1,1.373,3.786,15.545,15.545,0,0,1-.012,1.724,1.361,1.361,0,0,1-1.1,1.374c-.763.184-1.527.375-2.3.509-1.011.175-2.032.3-3.049.441A3.752,3.752,0,0,1,848.727,40.117Z" transform="translate(-617.77 -549.518)" fill="#fff"/><path d="M516.774-329.9a7.48,7.48,0,0,1,1.728-4.5c1.067-1.253,1.855-1.128,2.926-.145a7.934,7.934,0,0,1,1.9,2.75c.745,1.734.758,1.255-.022,2.957a12.319,12.319,0,0,1-1.23,2.009,4.165,4.165,0,0,1-1.829,1.454,1.494,1.494,0,0,1-2.038-.411,4.087,4.087,0,0,1-.879-1.368A7.611,7.611,0,0,1,516.774-329.9Z" transform="translate(-348.916 -252.662)" fill="#fff"/><path d="M617.015-335.553a7.634,7.634,0,0,1,.7-3.081,3.991,3.991,0,0,1,.572-.92.666.666,0,0,1,1.033-.141,4.883,4.883,0,0,1,.687.589,6.859,6.859,0,0,1,1.254,1.88c.145.3.252.619.415.907a1.173,1.173,0,0,1-.006,1.286c-.444.72-.866,1.455-1.344,2.152a3.3,3.3,0,0,1-1.215,1.073.667.667,0,0,1-.964-.186,4.828,4.828,0,0,1-1.034-2.386C617.047-334.765,617.044-335.161,617.015-335.553Z" transform="translate(-430.122 -248.961)" fill="#fff"/></g></svg>